PathFileType	4	(X/Y/Z)	/Users/itak/Documents/Research/Walk-IL/dataset/trc/00145_00007.trc
DataRate	CameraRate	NumFrames	NumMarkers	Units	OrigDataRate	OrigDataStartFrame	OrigNumFrames
100.000000	100.000000	4	53	mm	100.000000	192	514
Frame#	Time	RPSI			LPSI			L3			STRN			T10			C7			CLAV			RBAK			LBAK			LSHO			LUPA			LAEL			LAOL			LWTS			LWPS			LFRA			LIFD			LHPS			LHTS			RSHO			RUPA			RAEL			RAOL			RWTS			RWPS			RFRA			RIFD			RHTS			RHPS			RBHD			LFHD			RFHD			LBHD			LHIP			RHIP			RASI			LASI			LKNE			LTHI			LANK			LTIP			LTOE			LMT1			LMT5			LHEE			RKNE			RTHI			RANK			RTIP			RTOE			RMT1			RMT5			RHEE			
		X1	Y1	Z1	X2	Y2	Z2	X3	Y3	Z3	X4	Y4	Z4	X5	Y5	Z5	X6	Y6	Z6	X7	Y7	Z7	X8	Y8	Z8	X9	Y9	Z9	X10	Y10	Z10	X11	Y11	Z11	X12	Y12	Z12	X13	Y13	Z13	X14	Y14	Z14	X15	Y15	Z15	X16	Y16	Z16	X17	Y17	Z17	X18	Y18	Z18	X19	Y19	Z19	X20	Y20	Z20	X21	Y21	Z21	X22	Y22	Z22	X23	Y23	Z23	X24	Y24	Z24	X25	Y25	Z25	X26	Y26	Z26	X27	Y27	Z27	X28	Y28	Z28	X29	Y29	Z29	X30	Y30	Z30	X31	Y31	Z31	X32	Y32	Z32	X33	Y33	Z33	X34	Y34	Z34	X35	Y35	Z35	X36	Y36	Z36	X37	Y37	Z37	X38	Y38	Z38	X39	Y39	Z39	X40	Y40	Z40	X41	Y41	Z41	X42	Y42	Z42	X43	Y43	Z43	X44	Y44	Z44	X45	Y45	Z45	X46	Y46	Z46	X47	Y47	Z47	X48	Y48	Z48	X49	Y49	Z49	X50	Y50	Z50	X51	Y51	Z51	X52	Y52	Z52	X53	Y53	Z53	

193	1.92	-426.111083984375	1116.701782226562	1211.46337890625	-426.8663330078125	1124.907592773438	1075.277465820312	-433.8014526367188	1157.989501953125	1145.20166015625	-204.6195220947266	1344.862426757812	1141.009887695312	-456.6304016113281	1307.354370117188	1161.133056640625	-414.3796997070312	1598.070678710938	1139.6513671875	-236.6584930419922	1480.67138671875	1133.763427734375	-470.2041625976562	1419.007568359375	1236.677856445312	-432.0994873046875	1575.978149414062	1040.677978515625	-352.4100341796875	1554.084228515625	962.8732299804688	-391.5316772460938	1422.627563476562	900.1641235351562	-406.1322631835938	1204.89208984375	883.0478515625	-456.4642028808594	1198.60986328125	955.4507446289062	-328.0780334472656	936.2207641601562	903.918212890625	-416.8239135742188	920.8500366210938	898.3844604492188	-404.6437377929688	1087.43408203125	877.0966796875	-332.7265625	741.5751342773438	922.2369995117188	-397.58935546875	842.566650390625	893.8025512695312	-328.3242797851562	846.3408813476562	892.6849365234375	-341.7666931152344	1579.483032226562	1315.320068359375	-354.4087524414062	1508.135009765625	1382.897094726562	-365.6260375976562	1213.249633789062	1406.634155273438	-380.3179016113281	1210.764038085938	1312.145751953125	-219.1788482666016	970.7778930664062	1387.710205078125	-291.0503540039062	954.4096069335938	1424.547119140625	-339.925048828125	1139.596801757812	1422.653686523438	-191.1012725830078	776.7041015625	1373.571533203125	-187.9446105957031	863.4119262695312	1394.164306640625	-252.3248138427734	854.939453125	1426.133056640625	-332.9432373046875	1769.283081054688	1216.662841796875	-265.3691711425781	1822.276489257812	1013.229309082031	-200.7782745361328	1843.514404296875	1124.34228515625	-407.2322082519531	1750.965698242188	1105.458862304688	-330.9463806152344	1040.446655273438	961.0287475585938	-303.6265258789062	1008.148071289062	1323.677124023438	-218.2225189208984	1080.632446289062	1277.4482421875	-226.5586700439453	1096.67626953125	1012.794494628906	-197.8447265625	545.76220703125	1016.550842285156	-256.3699340820312	680.9400634765625	979.00048828125	-202.4240264892578	34.99118041992188	1068.98486328125	-243.4002532958984	283.0717468261719	1016.123107910156	27.47424507141113	58.47660446166992	1085.925170898438	-41.3344841003418	56.25405120849609	1134.738525390625	-84.68882751464844	43.01726531982422	1027.383911132812	-260.92529296875	37.82412338256836	1140.001586914062	-367.4847717285156	517.1361694335938	1293.070190429688	-305.306884765625	794.5856323242188	1310.194702148438	-742.5812377929688	129.5755615234375	1291.700317382812	-462.5259704589844	411.2732849121094	1309.12744140625	-549.53759765625	42.75661087036133	1238.733154296875	-602.26953125	48.36003112792969	1194.652221679688	-638.7991333007812	50.59637069702148	1309.691528320312	-784.4520874023438	171.3534088134766	1243.387939453125	
194	1.93	-417.2873840332031	1117.524169921875	1209.161254882812	-418.0102233886719	1125.528442382812	1072.834106445312	-424.9861755371094	1158.695556640625	1142.694702148438	-195.9498596191406	1346.154174804688	1137.924072265625	-447.8856506347656	1308.121704101562	1158.561401367188	-406.44091796875	1598.899047851562	1137.296630859375	-228.3078308105469	1481.914794921875	1130.842407226562	-461.3501281738281	1419.70263671875	1234.26953125	-424.2103881835938	1576.771484375	1038.21728515625	-344.6802978515625	1555.3349609375	960.3030395507812	-383.4504699707031	1423.813598632812	897.4907836914062	-396.8279418945312	1205.951538085938	880.2037353515625	-446.9598083496094	1199.21728515625	952.68310546875	-315.8646545410156	938.1853637695312	900.7088012695312	-404.3627319335938	921.8055419921875	895.4083251953125	-394.1939697265625	1088.496826171875	874.1719970703125	-317.9678955078125	743.5059814453125	918.86279296875	-384.1672058105469	843.7191772460938	890.7348022460938	-314.9393920898438	848.3443603515625	889.4208984375	-333.2197570800781	1580.50244140625	1312.625366210938	-345.634521484375	1509.230712890625	1380.302490234375	-357.4367370605469	1214.614868164062	1404.54833984375	-372.2662963867188	1211.94580078125	1310.052978515625	-211.4229583740234	971.8265991210938	1385.763549804688	-283.2291259765625	955.5977783203125	1422.764770507812	-331.8370056152344	1140.902099609375	1420.617309570312	-183.63037109375	777.6895141601562	1371.77197265625	-180.3135681152344	864.484130859375	1392.189086914062	-244.6248474121094	856.0692749023438	1424.38525390625	-325.1491088867188	1770.284301757812	1214.253784179688	-258.5390014648438	1823.71728515625	1010.693969726562	-193.5662231445312	1844.921264648438	1121.574584960938	-399.874755859375	1751.997924804688	1103.344116210938	-322.4493713378906	1041.262573242188	958.447265625	-294.144287109375	1009.089721679688	1320.794311523438	-209.0956115722656	1081.8701171875	1274.267822265625	-218.0042419433594	1097.653564453125	1009.747253417969	-193.791015625	545.4129028320312	1014.9033203125	-250.8593597412109	681.1751708984375	977.273681640625	-202.2064514160156	35.03684234619141	1068.979248046875	-241.3799133300781	283.0716857910156	1015.240478515625	27.97818756103516	57.40069580078125	1085.93798828125	-41.03962707519531	55.90696334838867	1134.951416015625	-84.36138916015625	42.84539031982422	1027.499633789062	-260.7910461425781	37.97214126586914	1139.914306640625	-350.1824035644531	516.8172607421875	1292.630126953125	-293.0527038574219	795.3673706054688	1308.079345703125	-733.3251953125	137.9753875732422	1294.68017578125	-446.4364318847656	412.1670532226562	1309.4150390625	-547.9286499023438	42.99499893188477	1239.6240234375	-599.536376953125	49.98366165161133	1194.902587890625	-634.8046264648438	52.23677825927734	1310.400512695312	-773.5831909179688	181.0237731933594	1246.180419921875	
195	1.94	-408.6755981445312	1118.055908203125	1206.905151367188	-409.3438415527344	1126.012084960938	1070.450805664062	-416.2952270507812	1159.190063476562	1140.234130859375	-187.4055480957031	1347.208618164062	1134.901733398438	-439.3258972167969	1308.75439453125	1155.921264648438	-398.5318603515625	1599.581665039062	1134.93896484375	-220.0128784179688	1482.926147460938	1127.960571289062	-452.6609802246094	1420.2724609375	1231.773193359375	-416.2460021972656	1577.420654296875	1035.662109375	-336.8467102050781	1556.385864257812	957.7056274414062	-375.2728271484375	1424.814086914062	894.7646484375	-387.4480895996094	1206.820678710938	877.2567138671875	-437.4688415527344	1199.636352539062	949.7591552734375	-303.4814453125	940.047119140625	897.4572143554688	-391.7171630859375	922.6065673828125	892.312744140625	-383.6293334960938	1089.3798828125	871.1394653320312	-302.9268188476562	745.3787231445312	915.4319458007812	-370.52490234375	844.7479858398438	887.5397338867188	-301.3236083984375	850.2665405273438	886.1094970703125	-324.7726135253906	1581.30615234375	1309.92138671875	-336.9996032714844	1510.090576171875	1377.676025390625	-349.295654296875	1215.739501953125	1402.478393554688	-364.2864074707031	1212.862426757812	1307.989868164062	-203.5448455810547	972.736328125	1383.796752929688	-275.2593994140625	956.6038818359375	1420.992553710938	-323.7327880859375	1141.97412109375	1418.593139648438	-175.8931884765625	778.5579833984375	1370.016357421875	-172.4746246337891	865.4505615234375	1390.211059570312	-236.6917724609375	857.0586547851562	1422.683715820312	-317.3410339355469	1771.03076171875	1211.893310546875	-251.7541961669922	1824.997192382812	1008.208068847656	-186.4092102050781	1846.168334960938	1118.853759765625	-392.5138854980469	1752.775024414062	1101.27978515625	-314.204833984375	1041.935791015625	955.9572143554688	-284.8762817382812	1009.743713378906	1317.9716796875	-200.181396484375	1082.885498046875	1271.1767578125	-209.5667419433594	1098.429077148438	1006.776184082031	-189.9708404541016	544.9659423828125	1013.230407714844	-245.5944519042969	681.2987060546875	975.5167846679688	-202.0090637207031	35.0942268371582	1069.009765625	-239.5496520996094	283.0138549804688	1014.421508789062	28.4343433380127	56.36658477783203	1085.970092773438	-40.75851058959961	55.53020477294922	1135.158813476562	-84.06678009033203	42.67892456054688	1027.611450195312	-260.66845703125	38.1026725769043	1139.87548828125	-332.3670654296875	516.3436279296875	1291.972290039062	-280.7093505859375	795.9306640625	1305.976318359375	-722.9102172851562	146.1680908203125	1297.789428710938	-429.539794921875	412.7608032226562	1309.520141601562	-544.8760375976562	43.46278762817383	1240.741821289062	-595.4876098632812	51.95983123779297	1195.3935546875	-629.5186157226562	54.31618499755859	1311.303344726562	-761.6950073242188	190.3108673095703	1249.163208007812	
196	1.95	-400.2760009765625	1118.278564453125	1204.717407226562	-400.8798828125	1126.370727539062	1068.15478515625	-407.7213745117188	1159.478515625	1137.849365234375	-179.0061187744141	1348.03076171875	1131.971435546875	-430.9757690429688	1309.265502929688	1153.242919921875	-390.6620178222656	1600.131469726562	1132.587158203125	-211.7930450439453	1483.711181640625	1125.139526367188	-444.1663208007812	1420.728881835938	1229.205200195312	-408.2221374511719	1577.935424804688	1033.02978515625	-328.9107055664062	1557.224365234375	955.0935668945312	-366.9872436523438	1425.617309570312	892.0007934570312	-377.9646606445312	1207.487182617188	874.2050170898438	-427.9880676269531	1199.853759765625	946.6598510742188	-290.9363098144531	941.7888793945312	894.1851806640625	-378.8953857421875	923.2413330078125	889.0798950195312	-372.9272766113281	1090.075073242188	867.9962768554688	-287.6441040039062	747.1775512695312	911.9495239257812	-356.6710205078125	845.6412963867188	884.213623046875	-287.498779296875	852.0946655273438	882.760986328125	-316.4457702636719	1581.9072265625	1307.225830078125	-328.5290832519531	1510.7265625	1375.032104492188	-341.2088317871094	1216.623413085938	1400.410522460938	-356.3612976074219	1213.521850585938	1305.941162109375	-195.5519409179688	973.5059814453125	1381.817626953125	-267.1637573242188	957.4268188476562	1419.218017578125	-315.6237487792969	1142.813720703125	1416.573486328125	-167.9012451171875	779.3101196289062	1368.31640625	-164.4467926025391	866.29736328125	1388.2568359375	-228.5549621582031	857.9060668945312	1421.020141601562	-309.5120544433594	1771.540649414062	1209.585327148438	-245.0056457519531	1826.112915039062	1005.768798828125	-179.2926788330078	1847.258911132812	1116.175659179688	-385.1392517089844	1753.301879882812	1099.26953125	-306.2341918945312	1042.488647460938	953.5633544921875	-275.7948608398438	1010.106872558594	1315.224731445312	-191.4761047363281	1083.67724609375	1268.194702148438	-201.2626495361328	1099.024780273438	1003.891479492188	-186.3842315673828	544.4495239257812	1011.538330078125	-240.5691833496094	681.3400268554688	973.73876953125	-201.8374938964844	35.15218734741211	1069.05615234375	-237.8876342773438	282.9191589355469	1013.626342773438	28.83425712585449	55.41062927246094	1086.014526367188	-40.50737762451172	55.15682983398438	1135.3427734375	-83.81108856201172	42.51679992675781	1027.70751953125	-260.5663757324219	38.21180725097656	1139.864013671875	-314.1241455078125	515.7531127929688	1291.011596679688	-268.2879333496094	796.2835083007812	1303.856201171875	-711.3351440429688	153.8869171142578	1300.947631835938	-411.9389038085938	413.085205078125	1309.358154296875	-539.8518676757812	44.23745727539062	1242.11328125	-589.6881103515625	54.32242202758789	1196.200073242188	-622.5574340820312	56.88948059082031	1312.461547851562	-748.8783569335938	198.9683837890625	1252.268676757812	
